<?xml version="1.0" encoding="UTF-8" standalone="no"?>
<!-- Created with Inkscape (http://www.inkscape.org/) -->

<svg
   xmlns:dc="http://purl.org/dc/elements/1.1/"
   xmlns:cc="http://creativecommons.org/ns#"
   xmlns:rdf="http://www.w3.org/1999/02/22-rdf-syntax-ns#"
   xmlns:svg="http://www.w3.org/2000/svg"
   xmlns="http://www.w3.org/2000/svg"
   xmlns:sodipodi="http://sodipodi.sourceforge.net/DTD/sodipodi-0.dtd"
   xmlns:inkscape="http://www.inkscape.org/namespaces/inkscape"
   width="80"
   height="80"
   id="svg2"
   version="1.1"
   inkscape:version="0.48.2 r9819"
   sodipodi:docname="spiral.svg">
  <defs
     id="defs4" />
  <sodipodi:namedview
     id="base"
     pagecolor="#ffffff"
     bordercolor="#666666"
     borderopacity="1.0"
     inkscape:pageopacity="0.0"
     inkscape:pageshadow="2"
     inkscape:zoom="2.3770695"
     inkscape:cx="-30.363635"
     inkscape:cy="49.888417"
     inkscape:document-units="px"
     inkscape:current-layer="layer1"
     showgrid="false"
     inkscape:window-width="971"
     inkscape:window-height="676"
     inkscape:window-x="0"
     inkscape:window-y="0"
     inkscape:window-maximized="0" />
  <metadata
     id="metadata7">
    <rdf:RDF>
      <cc:Work
         rdf:about="">
        <dc:format>image/svg+xml</dc:format>
        <dc:type
           rdf:resource="http://purl.org/dc/dcmitype/StillImage" />
        <dc:title></dc:title>
      </cc:Work>
    </rdf:RDF>
  </metadata>
  <g
     inkscape:label="Layer 1"
     inkscape:groupmode="layer"
     id="layer1"
     transform="translate(0,-972.36218)">
    <path
       sodipodi:type="spiral"
       style="fill:none;stroke:#000000;stroke-width:11.99465370000000064;stroke-linecap:round;stroke-linejoin:miter;stroke-miterlimit:4;stroke-opacity:1;stroke-dasharray:none"
       id="path2985"
       sodipodi:cx="77.903633"
       sodipodi:cy="97.321327"
       sodipodi:expansion="1"
       sodipodi:revolution="3"
       sodipodi:radius="72.650497"
       sodipodi:argument="-17.15933"
       sodipodi:t0="0.10159469"
       d="m 71.301951,94.020486 c -0.112709,-6.405711 7.068382,-9.748786 12.610047,-8.715889 9.337994,1.740486 13.781689,12.158402 11.423413,20.732623 -3.37099,12.25624 -17.292268,17.8845 -28.855192,14.13093 C 51.297147,115.23942 44.462699,97.726381 49.641758,83.190389 56.096517,65.073909 77.240583,57.02403 94.742095,63.644404 115.7963,71.608671 125.06659,96.404593 116.9956,116.86731 107.53148,140.86211 79.071322,151.35586 55.650122,141.82835 28.712749,130.87049 16.993532,98.738125 27.981565,72.360292 40.429037,42.478936 76.239037,29.532836 105.57219,41.984211 138.39857,55.918393 152.57258,95.4099 138.6558,127.69741 126.98738,154.76863 98.488888,171.3996 69.247652,169.45432"
       transform="matrix(0.45478596,0,0,0.45478596,3.9093925,966.19243)" />
  </g>
</svg>
